<svg viewBox="0 0 266 100" xml:space="preserve" xmlns="http://www.w3.org/2000/svg"> <path d="m0,0h266v100h-266z" fill="#3b5998"></path> <path d="m140.02051,49.59668c-1.78418,0-3.07031.58496-4.37402,1.18115v13.48584c1.24902.11914 1.96484.11914 3.15039.11914 4.28223,0 4.86914-1.96094 4.86914-4.69922v-6.44141c0-2.02148-.6709-3.64551-3.64551-3.64551zm-28.43799-.73584c-2.9707,0-3.64941,1.63135-3.64941,3.65088v1.13477h7.29443v-1.13477c0-2.01953-.67773-3.65088-3.64502-3.65088zm-55.08984,14.0376c0,1.59766.75391,2.42773 2.41797,2.42773 1.78516,0 2.8418-.58203 4.14453-1.17969v-3.19922h-3.90332c-1.84717,0-2.65918.34375-2.65918,1.95117zm111.19092-13.30176c-2.97559,0-4.00684,1.62402-4.00684,3.64551v7.37891c0,2.02734 1.03125,3.65625 4.00684,3.65625 2.96777,0 4.00684-1.62891 4.00684-3.65625v-7.37891c0-2.02148-1.03906-3.64551-4.00684-3.64551zm-125.77441,21.5752h-8.74756v-21.17432h-4.37158v-7.29639h4.37158v-4.38086c0-5.95264 2.46729-9.49219 9.479-9.49219h5.83789v7.29785h-3.64893c-2.72998,0-2.90967,1.01953-2.90967,2.92285l-.01074,3.65234h6.61035l-.77344,7.29639h-5.83691v21.17432zm29.89697.05469h-7.29053l-.31592-1.84375c-3.3291,1.84375-6.30029,2.14258-8.26025,2.14258-5.34668,0-8.19336-3.57227-8.19336-8.51172 0-5.82813 3.3208-7.9082 9.26221-7.9082h6.04688v-1.25977c0-2.97412-.34082-3.84814-4.91553-3.84814h-7.47998l.73145-7.29639h8.17627c10.03809,0 12.23877,3.1709 12.23877,11.20313v17.32227zm24.79297-20.69385c-4.53711-.77734-5.83984-.94824-8.02295-.94824-3.92139,0-5.10645.86523-5.10645,4.19482v6.29883c0,3.33008 1.18506,4.19922 5.10645,4.19922 2.18311,0 3.48584-.17383 8.02295-.95508v7.11719c-3.97412.89063-6.56299,1.125-8.75146,1.125-9.39209,0-13.12549-4.93945-13.12549-12.07422v-5.11133c0-7.14111 3.7334-12.08887 13.12549-12.08887 2.18848,0 4.77734.23535 8.75146,1.12988v7.11279zm27.37598,8.95752h-16.04199v.58789c0,3.33008 1.18604,4.19922 5.10645,4.19922 3.52441,0 5.67529-.17383 10.2041-.95508v7.11719c-4.36768.89063-6.64355,1.125-10.9292,1.125-9.39258,0-13.12793-4.93945-13.12793-12.07422v-5.84375c0-6.24268 2.77148-11.35645 12.396-11.35645s12.39258,5.0542 12.39258,11.35645v5.84375zm28.43701.13477c0,6.89648-1.9707,11.92578-13.91113,11.92578-4.31152,0-6.84082-.37891-11.59961-1.11133v-39.42041l8.74512-1.45947v13.78906c1.88965-.70215 4.33594-1.05859 6.5625-1.05859 8.74609,0 10.20313,3.9209 10.20313,10.22168v7.11328zm28.0332.15039c0,5.94922-2.45605,11.71875-12.73242,11.71875s-12.7832-5.76953-12.7832-11.71875v-5.74414c0-5.95215 2.50195-11.72266 12.7832-11.72266s12.73242,5.77051 12.73242,11.72266v5.74414zm28.01367,0c0,5.94922-2.45898,11.71875-12.7334,11.71875-10.28125,0-12.7832-5.76953-12.7832-11.71875v-5.74414c0-5.95215 2.50195-11.72266 12.7832-11.72266 10.27441,0 12.7334,5.77051 12.7334,11.72266v5.74414zm28.74902,11.39648h-9.47949l-8.0166-13.38281v13.38281h-8.74805v-40.15283l8.74805-1.45947v25.84863l8.0166-12.70703h9.47949l-8.75195,13.86719 8.75195,14.60352zm-41.51172-21.5752c-2.9707,0-4.00195,1.62402-4.00195,3.64551v7.37891c0,2.02734 1.03125,3.65625 4.00195,3.65625s4.0166-1.62891 4.0166-3.65625v-7.37891c0-2.02148-1.0498-3.64551-4.0166-3.64551z" fill="#fff"></path> <path d="m242.20117,66.17773c1.47266,0 2.64648,1.20117 2.64648,2.70117 0,1.52344-1.17383,2.71094-2.65723,2.71094s-2.67285-1.1875-2.67285-2.71094c0-1.5 1.19727-2.70117 2.67285-2.70117h.01074zm-.01074.41992c-1.18652,0-2.1582,1.02148-2.1582,2.28125 0,1.2832.97168,2.29102 2.16895,2.29102 1.19824.01172 2.15527-1.00781 2.15527-2.2793s-.95703-2.29297-2.15527-2.29297h-.01074zm-.50391,3.85352h-.48047v-3.01367c.25195-.03516.49219-.07031.85156-.07031 .45605,0 .75391.0957.93652.22656s.27246.33594.27246.62305c0,.39844-.26172.63672-.58496.73438v.02344c.2627.04883.44238.28711.50293.73047 .07031.46875.14258.64844.19043.74609h-.50293c-.07129-.09766-.14355-.37305-.2041-.76953-.07031-.38281-.26367-.52734-.64844-.52734h-.33301v1.29687zm0-1.66797h.34766c.39355,0 .72852-.14453.72852-.51758 0-.26367-.19043-.52734-.72852-.52734-.15723,0-.26563.01172-.34766.02344v1.02148z" fill="#fff"></path></svg>
