<svg version="1.1" xmlns="http://www.w3.org/2000/svg" xmlns:xlink="http://www.w3.org/1999/xlink" x="0px" y="0px" viewBox="0 0 311.785 298.274" xml:space="preserve"><g> <path d="M297.659,281.081c0-5.863,0-11.531,0-17.541c-5.142,0-10.017,0-15.09,0c0-5.944,0-11.545,0-17.264 c-84.204,0-168.197,0-252.417,0c0,5.854,0,11.449,0,17.383c-5.096,0-9.976,0-15.112,0c0,6.01,0,11.681,0,17.467 c-5.021,0-9.771,0-14.521,0c0,5.89,0,11.779,0,17.668c103.929,0,207.857,0,311.785,0c0-5.841,0-11.683,0-17.713 C307.219,281.081,302.573,281.081,297.659,281.081z"/> <path d="M295.685,76.835c0-2.628-0.168-5.134,0.05-7.606c0.196-2.234-0.604-3.301-2.643-4.259 c-41.55-19.528-83.063-39.136-124.576-58.747c-3.891-1.838-7.724-3.799-11.584-5.704c-0.346,0-0.692,0-1.039,0 c-0.81,0.468-1.59,0.996-2.433,1.395c-20.326,9.604-40.658,19.192-60.988,28.785C68.154,42.175,43.834,53.647,19.53,65.152 c-0.866,0.41-2.21,1.106-2.253,1.743c-0.228,3.318-0.106,6.661-0.106,9.94C110.188,76.835,202.814,76.835,295.685,76.835z"/> <path d="M169.784,240.89c11.158,0,21.915,0,32.74,0c-1.305-45.542-2.604-90.86-3.906-136.275c-8.6,0-16.936,0-25.436,0 C172.048,150.105,170.918,195.427,169.784,240.89z"/> <path d="M50.833,240.994c11.025,0,21.724,0,32.747,0c-1.309-45.635-2.609-91.01-3.912-136.41c-8.648,0-16.919,0-25.419,0 C53.108,150.104,51.972,195.485,50.833,240.994z"/> <path d="M229.246,240.925c11.059,0,21.82,0,32.748,0c-1.307-45.584-2.608-90.967-3.909-136.332c-8.627,0-16.905,0-25.416,0 C231.527,150.062,230.39,195.383,229.246,240.925z"/> <path d="M110.298,240.994c10.972,0,21.667,0,32.747,0c-1.308-45.65-2.609-91.033-3.91-136.408c-8.614,0-16.889,0-25.415,0 C112.578,150.106,111.439,195.486,110.298,240.994z"/> <path d="M268.682,82.122c-75.006,0-149.694,0-224.668,0c0,2.983,0,5.816,0,8.651c0,2.83,0,5.659,0,8.527 c75.092,0,149.841,0,224.668,0C268.682,93.49,268.682,87.896,268.682,82.122z"/></g></svg>
