
<svg version="1.1" xmlns="http://www.w3.org/2000/svg" xmlns:xlink="http://www.w3.org/1999/xlink" x="0px" y="0px" viewBox="0 0 159.915 167.538" xml:space="preserve">
<g>
	<path d="M77.048,136.221C42.018,137.002,9.908,154.788,0,167.481c5.235-1.347,10.277-3.256,15.418-4.841
		c1.587-0.487,3.812-0.734,5.127,0.006c11.583,6.516,23.11,6.093,34.635,0.106c2.278-1.183,3.95-0.844,6.335-0.021
		c5.643,1.948,11.496,3.682,17.398,4.39c7.688,0.922,14.59-2.19,20.641-6.589c12.659,8.748,25.343,8.09,38.365,1.938
		c1.4-0.661,3.514-0.523,5.062-0.024c4.672,1.503,9.23,3.367,13.833,5.092c0.205-0.525,0.41-1.052,0.616-1.577
		C140.518,148.029,107.057,135.552,77.048,136.221z"/>
	<path d="M110.313,31.428C118.326,14.182,110.081,3.311,99.9,0c5.658,10.052,7.511,20.481,5.233,32.895
		c-5.6-12.431-13.384-21.348-25.566-24.752C66.606,4.52,53.966,10.396,49.232,21.61c19.223-4.371,36.532-0.392,52.286,10.164
		c-6.625-0.25-13.317-1.062-19.927-0.629c-2.515,0.165-4.83,0.789-6.89,1.787c-0.588,0.285-1.156,0.601-1.702,0.944
		c-5.182,3.266-8.368,9.094-8.468,15.739c-0.021,1.399,0.095,2.833,0.358,4.289c0.138,0,0.318,0.056,0.407-0.011
		c0.454-0.337,0.927-0.666,1.317-1.07c9.49-9.854,21.311-14.963,34.662-16.74c1.665-0.221,4.419,0.366,5.129,1.523
		c5.54,9.039,9.473,18.749,9.977,29.502c0.242,5.174,0.042,10.369,0.042,16.454c7.928-6.708,9.169-14.641,8.072-23.056
		c-1.107-8.491-6.24-14.925-12.11-21.018c7.258,4.315,14.359,8.724,20.565,14.156c6.165,5.396,11.429,11.822,17.089,17.796
		c0.399-0.236,0.799-0.472,1.199-0.708c-3.104-5.898-5.753-12.098-9.411-17.631c-7.116-10.763-18.64-14.68-30.414-18.156
		c16.615-0.862,32.783,1.058,48.498,6.417C145.791,27.16,129.261,24.29,110.313,31.428z"/>
	<path d="M99.549,48.781c-14.538,25.723-20.247,53.736-22.732,82.904c2.395,0,4.376,0,7.306,0
		C85.501,103.183,88.075,75.143,99.549,48.781z"/>
	<path d="M49.592,80.149c4.063,2.42,7.93,5.286,12.229,7.165c3.899,1.704,8.265,2.341,13.57,3.754
		c-4.944-8.008-11.603-11.164-19.882-13.901c6.066-1.985,10.854-3.761,13.86-8.539c-7.962-1.38-15.074-0.459-21.42,4.696
		c1.59-5.52,6.105-9.934,4.411-16.152C42.194,60.944,41.737,75.47,49.592,80.149z"/>
	<path d="M35.719,104.273c2.513-8.443,5.032-16.764,7.408-25.126c0.21-0.741-0.237-2.107-0.845-2.572
		c-4.398-3.358-16.162-4.39-20.549,3.351c4.974,0.416,9.625,0.807,14.893,1.247C31.911,89.009,28.882,96.655,35.719,104.273z"/>
	<path d="M64.268,132.317c2.489-0.211,4.172-0.353,6.165-0.521c-2.078-15.233-12.788-38.845-22.59-49.211
		C56.936,98.712,64.407,114.19,64.268,132.317z"/>
</g>
</svg>
