<svg version="1.1" xmlns="http://www.w3.org/2000/svg" xmlns:xlink="http://www.w3.org/1999/xlink" x="0px" y="0px" viewBox="0 0 193.495 216.497" xml:space="preserve"><path d="M188.984,81.584c-14.363-2.553-28.787-3.034-43.186-0.874c-16.407,2.46-30.9,9.192-42.55,21.245 c-14.979,15.499-19.475,34.554-17.163,55.283c0.877,7.859,3.995,15.469,6.092,23.193c0.702,0.023,1.403,0.049,2.105,0.074 c7.739-28.559,22.716-51.798,48.235-67.297c-22.569,17.235-36.853,39.889-43.989,67.252c-0.838,3.215-1.67,6.475-2.953,9.523 c-4.387,10.42-15.36,16.354-26.411,14.502c-11.857-1.986-20.327-10.596-20.584-22.291c-0.411-18.652-0.101-37.322-0.168-55.984 c-0.01-2.791,1.096-3.853,3.875-3.795c5.829,0.122,11.663,0.042,17.495,0.033c9.244-0.016,13.736-4.431,13.755-13.735 c0.046-21.329-0.082-42.657,0.095-63.985c0.036-4.409-1.067-6.721-5.846-6.045c-3.647,0.517-4.536-1.421-4.477-4.709 c0.143-7.829,0.112-15.663,0.01-23.493c-0.082-6.295-3.6-10.57-8.369-10.473c-4.81,0.098-8.098,4.325-8.15,10.694 c-0.064,7.831-0.161,15.666,0.043,23.492c0.093,3.563-1.255,4.66-4.672,4.554c-6.326-0.195-12.667-0.216-18.992,0.006 c-3.643,0.127-5.101-1.076-4.996-4.832c0.2-7.159,0.082-14.328,0.042-21.494C28.186,4.543,25.07,0.073,19.647,0.001 c-5.181-0.068-8.494,4.616-8.609,12.468c-0.102,6.998-0.158,14,0.021,20.994c0.095,3.68-0.8,5.855-4.996,5.243 c-4.692-0.684-6.143,1.667-6.061,6.064c0.172,9.161,0.046,18.328,0.047,27.492C0.052,84.426-0.055,96.59,0.1,108.751 c0.117,9.238,4.811,13.683,13.978,13.697c5.499,0.01,11.016,0.284,16.49-0.084c4.698-0.315,6.352,1.042,6.269,6.03 c-0.296,17.825-0.549,35.671,0.025,53.482c0.451,13.992,6.927,25.262,20.102,30.873c13.966,5.949,28.021,5.314,39.631-5.541 c5.057-4.727,8.386-11.303,12.918-17.621c0.72,0.219,1.989,0.592,3.249,0.996c1.268,0.406,2.512,0.889,3.789,1.258 c19.181,5.57,36.53,2.98,49.961-12.811c5.102-6,9.391-13.045,12.555-20.268c10.029-22.889,13.016-47.332,14.412-72.037 C193.674,83.271,192.148,82.147,188.984,81.584z"/></svg>
